<svg xmlns="http://www.w3.org/2000/svg" version="1.1" xmlns:xlink="http://www.w3.org/1999/xlink" xmlns:svgjs="http://svgjs.dev/svgjs" width="1000" height="1000" viewBox="0 0 1000 1000"><rect width="1000" height="1000" fill="#000000"></rect><g transform="matrix(0.7,0,0,0.7,150.0000000000001,106.25)"><svg viewBox="0 0 320 360" data-background-color="#ffffff" preserveAspectRatio="xMidYMid meet" height="1125" width="1000" xmlns="http://www.w3.org/2000/svg" xmlns:xlink="http://www.w3.org/1999/xlink"><g id="tight-bounds" transform="matrix(1,0,0,1,0,0)"><svg viewBox="0 0 320 360" height="360" width="320"><g><svg></svg></g><g><svg viewBox="0 0 320 360" height="360" width="320"><g><path xmlns="http://www.w3.org/2000/svg" d="M20.961 227.22l3.726 4.658-1.863-6.056c-0.466-2.795-3.726 0.466-1.863 1.398M25.153 224.425c1.397 2.329 2.795 4.658 2.795 6.987 0 3.261 2.795 4.658 5.123 5.589-3.261-3.726-5.124-13.974-7.918-12.576M204.017 26.929c7.918 0 15.371-0.932 23.756 0.931 20.495 5.124 37.729 15.371 49.374 29.811l32.606 52.169c1.397 13.042 4.192 27.482 3.726 43.319 3.261 0 2.795-4.658 6.521-5.59-3.726 9.316-5.59 20.961-6.521 34.469-2.329-7.453 0-18.632 0.466-24.687-3.261 5.124-5.124 1.397-5.124-0.932 0.466-3.726-1.397-3.261-2.795-4.658-5.124-4.658-8.384-9.782-12.11-17.7 2.329-6.055 2.795-14.905-4.658-19.563-2.329-1.397-5.124-3.726-6.521-7.453-1.863-5.124-5.124-11.179-4.193-19.097 0.466-2.329-6.987 5.124-11.179 1.863-18.166-12.576-36.332-27.016-58.224-39.127-11.645 0-20.029-4.192-24.221-9.316-3.726-4.658-0.932-10.713 4.658-11.179 3.261 0 6.987-0.932 9.782 0.932 0.466-1.863 2.329-4.192 4.657-4.192M157.904 16.215l0.932 0.466c4.658 0.932 6.987 7.453 12.11 5.124 0 3.261 0.466 6.521-0.466 8.85-1.397 3.726-5.59 3.726-8.85 3.726-31.208-1.863-49.374 11.179-68.471 22.358-5.124 3.261-10.713 5.59-14.906 9.782-20.029 18.632-41.921 35.866-47.045 70.335l-4.192 38.195c-0.466 4.192-5.124 8.384-4.192 13.508l3.26 22.824c-3.261-3.261-5.124 0.932-4.192 2.795 0.466 1.397 2.329 6.055 5.124 1.863 3.726 6.987 7.453 20.495 12.576 26.55 15.837 18.632 36.332 35.4 53.101 52.169 4.192-0.932 7.453-0.932 8.384-3.727 1.397 2.795-1.397 5.59-3.726 6.056 7.453 4.658 15.837 8.85 27.016 9.781 14.44 0.932 27.948 3.261 40.524 6.522 6.521-1.863 13.042-2.795 20.029-3.261 2.329 0 3.726-3.726 6.521-4.658l0.466-4.658c2.795 4.192 2.329-1.397 0.466-4.192 3.261 2.795 4.192 5.124 5.589 6.987 0-1.397 3.726-6.521 3.727-0.466l0.931-6.055c1.397-0.932 1.863 5.124 3.261 0.931 1.397-4.192 4.192-0.932 6.987-2.329-0.932 1.863-0.466 5.59 2.794 3.261l3.727-3.261c2.329 5.59 6.055 3.261 7.918 2.329 20.495-13.042 40.99-28.413 60.553-43.784l-0.466 6.055 2.329-7.453c2.329 2.329 4.192 0.466 5.124-0.931 2.795-4.658 6.521-9.316 12.577-13.508-7.453 20.029-16.303 35.866-27.482 48.908l-4.658 5.59c0 3.261-0.932 7.453-4.658 7.918-1.863 0.466-5.59-0.932-8.384 1.863-1.397 1.863 3.261 5.59-0.466 2.795-3.261-2.329-6.521 0-10.248 0.932-2.795 0.932 1.863 3.726 2.795 5.589 0.932 1.863 1.863 3.726 1.398 6.056l-5.124-5.59c-6.055 3.261-9.782 9.316-14.906 13.974-2.329 1.863-1.397 5.124-1.397 7.918-3.261 0-6.987-0.932-8.85 0.932-1.397 1.863-0.932 4.658-0.932 7.453-4.658-0.466-5.124-7.453-9.315-6.056-4.192 0.932-8.85 1.397-12.577 3.727 2.795 5.59-4.658 2.329-3.726 3.26-6.987-4.192-13.042-7.453-20.495-4.658-15.837-5.124-35.4-2.795-49.84-0.931 0-2.329 0.466-4.658-0.466-5.124-0.932 2.329-3.726 1.397-3.26 1.397-8.85-6.055-17.7-9.782-27.016-14.905-8.384 0.932-16.303-3.261-18.632-5.59-6.521-6.055-13.974-2.795-20.029-4.192-13.042-3.261-17.7-16.769-19.098-26.084-0.932-4.658-4.658-6.521-6.055-6.056-6.055-19.563-15.371-37.263-22.824-55.429-1.863-4.658-1.397-9.316-1.397-14.44 2.329 0.932 4.658 0.466 4.192-2.794-2.329-15.371-7.918-27.016-13.974-38.195 3.261-15.837 3.726-34.469 11.179-48.443 6.521-12.576 18.632-19.098 27.016-29.811 2.795-3.726 2.795-8.85 5.59-12.11 9.316-9.316 18.632-19.098 28.879-27.482 4.658-3.726 10.247 0 17.234-1.397 2.329-8.384 11.645-15.837 20.495-13.508 3.726 0.932 11.179-8.85 13.508-9.782 3.726-1.397 1.863 3.726 1.863 6.987 8.85-6.987 20.961-10.713 32.14-14.906" fill="#ffffff" fill-rule="nonzero" stroke="none" stroke-width="1" stroke-linecap="butt" stroke-linejoin="miter" stroke-miterlimit="10" stroke-dasharray="" stroke-dashoffset="0" font-family="none" font-weight="none" font-size="none" text-anchor="none" style="mix-blend-mode: normal" data-fill-palette-color="tertiary"></path></g><g transform="matrix(1,0,0,1,64,126.48625792811839)"><svg viewBox="0 0 192 107.0274841437632" height="107.0274841437632" width="192"><g><svg viewBox="0 0 192 107.0274841437632" height="107.0274841437632" width="192"><g><svg viewBox="0 0 192 107.0274841437632" height="107.0274841437632" width="192"><g><svg viewBox="0 0 192 107.0274841437632" height="107.0274841437632" width="192"><g id="textblocktransform"><svg viewBox="0 0 192 107.0274841437632" height="107.0274841437632" width="192" id="textblock"><g><svg viewBox="0 0 192 107.0274841437632" height="107.0274841437632" width="192"><g transform="matrix(1,0,0,1,0,0)"><svg width="192" viewBox="0 -37.650001525878906 70.94000244140625 39.55000305175781" height="107.0274841437632" data-palette-color="#000000"><path d="M23.45-34.7L23.45-34.7Q23.2-34 14.25-17.55L14.25-17.55Q16.15-17.35 17.9-16.65L17.9-16.65Q24.4-20.7 29.98-25.88 35.55-31.05 38.05-36.05L38.05-36.05Q38.1-36.55 38.53-36.55 38.95-36.55 39.48-36.3 40-36.05 40-35.7L40-35.7Q38.05-30.9 32.2-25.63 26.35-20.35 19.1-16.05L19.1-16.05Q24.5-13.15 24.5-5.8L24.5-5.8Q24.5-3.65 23.95-1.85 23.4-0.05 22.9 0.65L22.9 0.65 22.35 1.35Q21.95 1.35 21.95 0.85L21.95 0.85 22.25-0.1Q22.95-2.25 22.95-4.2L22.95-4.2Q22.95-11.8 17.25-15L17.25-15Q14.5-13.5 11.25-12L11.25-12Q7.15-4.55 5-0.9L5-0.9Q4.65-0.05 4.08 0.2 3.5 0.45 2.9 0.45 2.3 0.45 2.3 0.25L2.3 0.25 8.35-10.85Q5.05-9.65 2.85-9.65L2.85-9.65Q0-9.65 0-11.85 0-14.05 3.78-15.88 7.55-17.7 12.1-17.7L12.1-17.7 20.95-33.95Q21.1-34.35 21.88-34.63 22.65-34.9 23.05-34.9 23.45-34.9 23.45-34.7ZM10.6-16.6L10.6-16.6Q7.1-16.6 4.45-15.3 1.8-14 1.8-12.2L1.8-12.2Q1.8-10.65 3.78-10.65 5.75-10.65 8.95-11.95L8.95-11.95 11.45-16.55Q11.15-16.6 10.6-16.6ZM13.6-16.3L13.6-16.3Q12.25-13.8 11.95-13.25L11.95-13.25Q13.5-14 16.1-15.55L16.1-15.55Q14.9-16.05 13.6-16.3ZM58.84-31.35L59.09-31.15Q59.09-31.05 59.02-30.93 58.95-30.8 57.55-28.1L57.55-28.1Q56-25.2 49.39-12.95L49.39-12.95Q56.8-15.7 62.64-21.18 68.5-26.65 68.5-30.8L68.5-30.8Q68.5-33.05 66.3-34.5 64.09-35.95 59.64-35.95 55.2-35.95 50.07-34.08 44.95-32.2 41.05-29.6 37.14-27 34.52-24.25 31.89-21.5 31.89-19.75L31.89-19.75Q31.89-17.8 35.02-17.8 38.14-17.8 42.17-19.88 46.2-21.95 49.39-25.4L49.39-25.4Q49.95-26.05 50.09-26.05L50.09-26.05Q50.45-26.05 50.45-25.7L50.45-25.7Q50.45-25.6 50.09-25L50.09-25Q48.45-22.5 42.77-19.13 37.09-15.75 33.37-15.75 29.64-15.75 29.64-18.1L29.64-18.1Q29.64-20.2 32.62-23.53 35.59-26.85 40.05-30 44.49-33.15 50.39-35.4 56.3-37.65 61.27-37.65 66.25-37.65 68.59-36.08 70.94-34.5 70.94-32L70.94-32Q70.94-27.65 65.42-22.1 59.89-16.55 52.09-13.2L52.09-13.2Q57.14-13.15 60.5-8.83 63.84-4.5 63.89 1.2L63.89 1.2Q63.89 1.9 63.64 1.9L63.64 1.9Q63.25 1.9 63.09 1.03 62.95 0.15 62.75-0.7 62.55-1.55 61.52-3.7 60.5-5.85 59.12-7.5 57.75-9.15 55.14-10.5 52.55-11.85 49.3-11.85L49.3-11.85 48.74-11.85Q45.14-5.3 42.7-1L42.7-1Q42.39-0.35 41.59 0 40.8 0.35 40.37 0.35 39.95 0.35 39.95 0.1L39.95 0.1 46.09-11.1Q44.09-10.6 41.99-10.35L41.99-10.35Q41.09-10.35 41.09-10.65L41.09-10.65Q41.09-11.2 41.64-11.25L41.64-11.25Q43.95-11.4 46.64-12.1L46.64-12.1 56.7-30.4Q56.84-30.8 57.59-31.08 58.34-31.35 58.84-31.35L58.84-31.35Z" opacity="1" transform="matrix(1,0,0,1,0,0)" fill="#ffffff" class="wordmark-text-0" data-fill-palette-color="primary" id="text-0"></path></svg></g></svg></g></svg></g></svg></g><g></g></svg></g></svg></g></svg></g></svg></g><defs></defs></svg><rect width="320" height="360" fill="none" stroke="none" visibility="hidden"></rect></g></svg></g></svg>